<svg class="svg-icon svg-icon--bin" aria-hidden="true" id="" focusable="false" role="presentation" xmlns="http://www.w3.org/2000/svg" data-icon-theme="option_1" width="72" height="72" viewBox="0 0 72 72">
    <g>
        <path fill="#717171" stroke="null" id="trash-alt" d="m58.55199,15.95408l-10.85873,0l-3.50748,-4.69075a5.01211,5.01211 0 0 0 -4.01068,-1.99289l-8.35268,0a5.01211,5.01211 0 0 0 -4.01566,1.99289l-3.5025,4.69075l-10.85873,0a0.83452,0.83452 0 0 0 -0.83452,0.83452l0,1.67153a0.83452,0.83452 0 0 0 0.83452,0.83452l2.50605,0l0,38.42283a5.01211,5.01211 0 0 0 5.01211,5.01211l30.07264,0a5.01211,5.01211 0 0 0 5.01211,-5.01211l0,-38.42283l2.50605,0a0.83452,0.83452 0 0 0 0.83452,-0.83452l0,-1.67153a0.83452,0.83452 0 0 0 -0.83701,-0.83452zm-28.06481,-2.67296a1.6815,1.6815 0 0 1 1.33772,-0.66762l8.35268,0a1.6815,1.6815 0 0 1 1.33772,0.66762l1.99289,2.67296l-15.02635,0l2.00534,-2.67296zm22.23063,44.43636a1.67153,1.67153 0 0 1 -1.67153,1.67153l-30.0826,0a1.67153,1.67153 0 0 1 -1.67153,-1.67153l0,-38.42283l33.42567,0l0,38.42283z"></path>
    </g>
</svg>