<svg class="svg-icon svg-icon--filter " aria-hidden="true" id="" focusable="false" role="presentation" xmlns="http://www.w3.org/2000/svg" data-icon-theme="option_1" width="72" height="72" viewBox="0 0 72 72">            <g id="Layer_15">                <path d="m56.354,58.764a2,2 0 0 0 2,-2l0,-6.218a7.618,7.618 0 0 0 0,-14.717l0,-19.775a2,2 0 1 0 -4,0l0,19.8a7.618,7.618 0 0 0 0,14.717l0,6.213a2,2 0 0 0 2,1.98zm-3.658,-15.577a3.659,3.659 0 1 1 3.658,3.659a3.659,3.659 0 0 1 -3.658,-3.659z" id="Path_20"></path>                <path d="m36,58.764a2,2 0 0 0 2,-2l0,-27.713a7.658,7.658 0 1 0 -4,0l0,27.713a2,2 0 0 0 2,2zm-3.66,-37.052a3.659,3.659 0 1 1 3.659,3.639a3.659,3.659 0 0 1 -3.659,-3.639z" id="Path_21"></path>                <path d="m13.645,43.767l0,13a2,2 0 0 0 4,0l0,-13a7.618,7.618 0 0 0 0,-14.717l0,-13a2,2 0 1 0 -4,0l0,13a7.618,7.618 0 0 0 0,14.717zm2,-11.017a3.659,3.659 0 1 1 -3.642,3.659a3.659,3.659 0 0 1 3.639,-3.659l0.003,0z" id="Path_22"></path>            </g>        </svg>