<svg class="svg-icon svg-icon--user " aria-hidden="true" id="" focusable="false" role="presentation" xmlns="http://www.w3.org/2000/svg" data-icon-theme="option_1" width="28" height="28" viewBox="0 0 28 28">                    <title></title>                <g id="User" transform="translate(0 0.256)">                <rect id="Rectangle_2917" data-name="Rectangle 2917" width="28" height="28" transform="translate(0 -0.256)" fill="none"></rect>                <path id="user-circle" d="M11.23,8a11.23,11.23,0,1,0,11.23,11.23A11.228,11.228,0,0,0,11.23,8Zm5.8,19.092a9.709,9.709,0,0,1-11.593,0v-.616a2.9,2.9,0,0,1,2.9-2.9h5.8a2.9,2.9,0,0,1,2.9,2.9Zm1.386-1.245a4.333,4.333,0,0,0-4.284-3.718h-5.8a4.333,4.333,0,0,0-4.284,3.718,9.781,9.781,0,1,1,14.364,0ZM11.23,13.072a3.985,3.985,0,1,0,3.985,3.985A3.985,3.985,0,0,0,11.23,13.072Zm0,6.521a2.536,2.536,0,1,1,2.536-2.536A2.538,2.538,0,0,1,11.23,19.593Z" transform="translate(2.738 -5.362)"></path>            </g>        </svg>