<svg class="svg-icon svg-icon--search " aria-hidden="true" id="" focusable="false" role="presentation" xmlns="http://www.w3.org/2000/svg" data-icon-theme="option_1" width="24" height="24" viewBox="0 0 24 24">                    <title></title>                <g id="Search" transform="translate(23253.262 10695.262)">                <rect id="Rectangle_2" data-name="Rectangle 2918" width="24" height="24" transform="translate(-23253.262 -10695.262)" fill="none"></rect>                <path id="search-plus" d="M19.845,19.4l-.442.442a.469.469,0,0,1-.664,0l-5.548-5.518c-.09-.09.37.27.37-.187a8.128,8.128,0,1,1,2.677-6.029,9.212,9.212,0,0,1-2.1,5.451c.457,0-.09-.5,0-.409l5.7,5.587A.469.469,0,0,1,19.845,19.4ZM14.988,8.111a6.877,6.877,0,1,0-6.877,6.877A6.872,6.872,0,0,0,14.988,8.111Z" transform="translate(-23251.57 -10693.086)"></path>            </g>        </svg>